<svg xmlns="http://www.w3.org/2000/svg" width="512" height="512" fill="none"><path fill="url(#a)" d="m431.717 104.008-22.773 115.338a1.3 1.3 0 0 0 .049.691 1.32 1.32 0 0 0 1.711.793l24.346-9.176c.059.338.117.688.172 1.013a205.633 205.633 0 0 1-12.392 109.161 205.626 205.626 0 0 1-66.829 87.198 205.626 205.626 0 0 1-210.56 22.307 216.464 216.464 0 0 0 304.181-104.582 216.445 216.445 0 0 0 14.633-118.395l28.04 2.275a1.319 1.319 0 0 0 1.212-.602 1.323 1.323 0 0 0 .039-1.353l-59.395-105.067a1.315 1.315 0 0 0-1.355-.646c-.266.043-.51.167-.704.353a1.299 1.299 0 0 0-.375.692Z"/><path fill="url(#b)" d="M388.223 344.634a190.423 190.423 0 0 1-155.216 72.642 190.422 190.422 0 0 1-150.74-81.528 190.413 190.413 0 0 1 22.518-244.346 190.418 190.418 0 0 1 75.298-45.688 200.51 200.51 0 1 0 248.366 195.099 189.076 189.076 0 0 1-40.226 103.821Z"/><path fill="url(#c)" d="M241.31 327.679v73.725l129.292-74.68v-73.715l-129.292 74.67Z"/><path fill="#0064AF" d="m299.186 185.293 63.795-36.862-121.672-70.29v73.722l57.877 33.43Z"/><path fill="url(#d)" d="M191.06 207.305v73.746l50.247 29.017v-73.713l-50.247-29.05Z"/><path fill="url(#e)" d="M370.602 161.644 241.31 236.355v73.713l129.292-74.68v-73.744Z"/><path fill="url(#f)" d="m119.692 148.388 63.412 37.077 58.202-33.602V78.141l-121.614 70.247Z"/><path fill="url(#g)" d="M175.81 289.862v-91.4l-63.817-36.85v165.111l129.314 74.679v-73.724l-65.497-37.816Z"/><defs><linearGradient id="a" x1="145.441" x2="493.714" y1="280.722" y2="280.722" gradientUnits="userSpaceOnUse"><stop stop-color="#403BEB"/><stop offset="1" stop-color="#22B7A0"/></linearGradient><linearGradient id="b" x1="27.429" x2="428.449" y1="243.327" y2="243.327" gradientUnits="userSpaceOnUse"><stop stop-color="#403BEB"/><stop offset="1" stop-color="#22B7A0"/></linearGradient><linearGradient id="c" x1="305.956" x2="305.956" y1="253.009" y2="401.404" gradientUnits="userSpaceOnUse"><stop stop-color="#403BEB"/><stop offset="1" stop-color="#22B7A0"/></linearGradient><linearGradient id="d" x1="216.184" x2="216.184" y1="207.305" y2="310.068" gradientUnits="userSpaceOnUse"><stop stop-color="#403BEB"/><stop offset="1" stop-color="#22B7A0"/></linearGradient><linearGradient id="e" x1="305.956" x2="305.956" y1="161.644" y2="310.068" gradientUnits="userSpaceOnUse"><stop stop-color="#403BEB"/><stop offset="1" stop-color="#22B7A0"/></linearGradient><linearGradient id="f" x1="180.499" x2="180.499" y1="78.141" y2="185.465" gradientUnits="userSpaceOnUse"><stop stop-color="#403BEB"/><stop offset="1" stop-color="#22B7A0"/></linearGradient><linearGradient id="g" x1="176.65" x2="176.65" y1="161.612" y2="401.402" gradientUnits="userSpaceOnUse"><stop stop-color="#403BEB"/><stop offset="1" stop-color="#22B7A0"/></linearGradient></defs></svg>