<svg width="606" height="152" viewBox="0 0 606 152" fill="none" xmlns="http://www.w3.org/2000/svg">
<path d="M202.158 63.7503C202.158 68.1898 201.139 72.2661 199.101 75.9779C197.063 79.6172 193.933 82.5652 189.712 84.8213C185.49 87.0777 180.25 88.2059 173.99 88.2059H162.417V115.719H143.748V39.0757H173.99C180.104 39.0757 185.272 40.1314 189.493 42.2419C193.715 44.3528 196.881 47.2644 198.992 50.9762C201.102 54.6884 202.158 58.9463 202.158 63.7503ZM172.571 73.3578C176.137 73.3578 178.794 72.5207 180.541 70.8468C182.288 69.1725 183.161 66.807 183.161 63.7503C183.161 60.6932 182.288 58.3277 180.541 56.6534C178.794 54.9795 176.137 54.1424 172.571 54.1424H162.417V73.3578H172.571ZM207.073 85.1488C207.073 78.8895 208.238 73.3943 210.567 68.6629C212.969 63.9319 216.208 60.2927 220.284 57.7451C224.36 55.1976 228.909 53.9242 233.931 53.9242C238.226 53.9242 241.974 54.7975 245.177 56.5443C248.452 58.2912 250.963 60.5837 252.71 63.4227V54.7975H271.38V115.719H252.71V107.094C250.89 109.932 248.343 112.225 245.068 113.972C241.865 115.719 238.116 116.592 233.822 116.592C228.873 116.592 224.36 115.319 220.284 112.771C216.208 110.151 212.969 106.475 210.567 101.744C208.238 96.9402 207.073 91.4086 207.073 85.1488ZM252.71 85.2583C252.71 80.5999 251.4 76.9241 248.78 74.2311C246.232 71.538 243.102 70.1917 239.39 70.1917C235.678 70.1917 232.512 71.538 229.892 74.2311C227.344 76.8515 226.071 80.4908 226.071 85.1488C226.071 89.8073 227.344 93.5195 229.892 96.2851C232.512 98.9782 235.678 100.325 239.39 100.325C243.102 100.325 246.232 98.9782 248.78 96.2851C251.4 93.5921 252.71 89.9163 252.71 85.2583ZM293.184 48.4652C289.908 48.4652 287.215 47.519 285.105 45.6266C283.066 43.6612 282.047 41.2592 282.047 38.4206C282.047 35.5094 283.066 33.1075 285.105 31.215C287.215 29.2498 289.908 28.2672 293.184 28.2672C296.386 28.2672 299.006 29.2498 301.044 31.215C303.155 33.1075 304.211 35.5094 304.211 38.4206C304.211 41.2592 303.155 43.6612 301.044 45.6266C299.006 47.519 296.386 48.4652 293.184 48.4652ZM302.464 54.7975V115.719H283.794V54.7975H302.464ZM333.571 64.9511C335.754 61.6029 338.484 58.9828 341.759 57.0904C345.035 55.125 348.674 54.1424 352.677 54.1424V73.9035H347.546C342.887 73.9035 339.394 74.9227 337.065 76.9606C334.736 78.926 333.571 82.4197 333.571 87.4418V115.719H314.901V54.7975H333.571V64.9511ZM447.959 54.7975L431.475 115.719H410.841L401.231 76.1964L391.297 115.719H370.772L354.177 54.7975H372.846L381.471 98.3596L391.734 54.7975H411.494L421.868 98.141L430.384 54.7975H447.959ZM463.376 48.4652C460.104 48.4652 457.41 47.519 455.297 45.6266C453.26 43.6612 452.242 41.2592 452.242 38.4206C452.242 35.5094 453.26 33.1075 455.297 31.215C457.41 29.2498 460.104 28.2672 463.376 28.2672C466.579 28.2672 469.201 29.2498 471.238 31.215C473.351 33.1075 474.403 35.5094 474.403 38.4206C474.403 41.2592 473.351 43.6612 471.238 45.6266C469.201 47.519 466.579 48.4652 463.376 48.4652ZM472.659 54.7975V115.719H453.99V54.7975H472.659ZM509.88 116.592C504.564 116.592 499.833 115.683 495.687 113.863C491.538 112.043 488.262 109.568 485.86 106.439C483.459 103.236 482.11 99.6698 481.821 95.7394H500.27C500.49 97.85 501.471 99.5603 503.219 100.871C504.967 102.181 507.114 102.836 509.66 102.836C511.989 102.836 513.771 102.399 515.01 101.526C516.321 100.58 516.975 99.3787 516.975 97.9229C516.975 96.1761 516.067 94.9023 514.246 94.1016C512.426 93.228 509.477 92.2818 505.404 91.263C501.034 90.2439 497.397 89.1886 494.486 88.0969C491.572 86.9322 489.064 85.1488 486.951 82.7472C484.842 80.2723 483.786 76.9606 483.786 72.8118C483.786 69.318 484.732 66.1519 486.624 63.3133C488.589 60.4021 491.427 58.1092 495.14 56.4353C498.925 54.761 503.401 53.9242 508.569 53.9242C516.211 53.9242 522.215 55.8166 526.585 59.6014C531.023 63.3862 533.569 68.4083 534.227 74.6681H516.975C516.686 72.5572 515.74 70.8829 514.136 69.6456C512.609 68.4083 510.572 67.7897 508.022 67.7897C505.841 67.7897 504.165 68.2263 503.002 69.0999C501.836 69.9006 501.254 71.0288 501.254 72.4842C501.254 74.2311 502.162 75.5413 503.983 76.4149C505.875 77.2882 508.786 78.1618 512.719 79.035C517.229 80.1997 520.908 81.364 523.746 82.5287C526.585 83.6205 529.059 85.4403 531.168 87.9878C533.353 90.4624 534.481 93.8106 534.554 98.032C534.554 101.599 533.535 104.801 531.495 107.64C529.53 110.406 526.657 112.589 522.872 114.19C519.16 115.792 514.828 116.592 509.88 116.592ZM602.311 84.2756C602.311 86.0225 602.201 87.8419 601.985 89.7343H559.732C560.021 93.5195 561.222 96.4307 563.335 98.4686C565.52 100.434 568.176 101.417 571.303 101.417C575.962 101.417 579.2 99.4513 581.02 95.521H600.89C599.872 99.5242 598.017 103.127 595.323 106.33C592.705 109.532 589.391 112.043 585.39 113.863C581.385 115.683 576.908 116.592 571.961 116.592C565.991 116.592 560.679 115.319 556.02 112.771C551.361 110.224 547.721 106.584 545.102 101.853C542.48 97.1223 541.173 91.5906 541.173 85.2583C541.173 78.926 542.446 73.3943 544.992 68.6629C547.614 63.9319 551.251 60.2927 555.91 57.7451C560.568 55.1976 565.919 53.9242 571.961 53.9242C577.855 53.9242 583.095 55.1615 587.681 57.6361C592.268 60.1106 595.832 63.6408 598.382 68.2263C601 72.8118 602.311 78.1618 602.311 84.2756ZM583.205 79.3626C583.205 76.1599 582.114 73.6124 579.929 71.72C577.744 69.8276 575.016 68.8814 571.74 68.8814C568.613 68.8814 565.953 69.7911 563.772 71.611C561.659 73.4304 560.352 76.0144 559.843 79.3626H583.205Z" fill="#232323"/>
<g filter="url(#filter0_d_217_4035)">
<path d="M88.399 21.66H27.7761C26.0772 21.66 24.7 23.0372 24.7 24.7361V104.438C24.7 106.137 26.0772 107.514 27.7761 107.514H88.399C90.0979 107.514 91.4751 106.137 91.4751 104.438V24.7361C91.4751 23.0372 90.0979 21.66 88.399 21.66Z" fill="#B1AFF8"/>
</g>
<g opacity="0.5" filter="url(#filter1_d_217_4035)">
<path d="M103.144 38.1371H42.5209C40.822 38.1371 39.4448 39.5144 39.4448 41.2133V120.915C39.4448 122.614 40.822 123.991 42.5209 123.991H103.144C104.843 123.991 106.22 122.614 106.22 120.915V41.2133C106.22 39.5144 104.843 38.1371 103.144 38.1371Z" fill="#6A67E7"/>
</g>
<defs>
<filter id="filter0_d_217_4035" x="0.0909081" y="0.127003" width="115.993" height="135.072" filterUnits="userSpaceOnUse" color-interpolation-filters="sRGB">
<feFlood flood-opacity="0" result="BackgroundImageFix"/>
<feColorMatrix in="SourceAlpha" type="matrix" values="0 0 0 0 0 0 0 0 0 0 0 0 0 0 0 0 0 0 127 0" result="hardAlpha"/>
<feOffset dy="3.07613"/>
<feGaussianBlur stdDeviation="12.3046"/>
<feComposite in2="hardAlpha" operator="out"/>
<feColorMatrix type="matrix" values="0 0 0 0 0 0 0 0 0 0 0 0 0 0 0 0 0 0 0.08 0"/>
<feBlend mode="normal" in2="BackgroundImageFix" result="effect1_dropShadow_217_4035"/>
<feBlend mode="normal" in="SourceGraphic" in2="effect1_dropShadow_217_4035" result="shape"/>
</filter>
<filter id="filter1_d_217_4035" x="14.8357" y="16.6042" width="115.993" height="135.072" filterUnits="userSpaceOnUse" color-interpolation-filters="sRGB">
<feFlood flood-opacity="0" result="BackgroundImageFix"/>
<feColorMatrix in="SourceAlpha" type="matrix" values="0 0 0 0 0 0 0 0 0 0 0 0 0 0 0 0 0 0 127 0" result="hardAlpha"/>
<feOffset dy="3.07613"/>
<feGaussianBlur stdDeviation="12.3046"/>
<feComposite in2="hardAlpha" operator="out"/>
<feColorMatrix type="matrix" values="0 0 0 0 0 0 0 0 0 0 0 0 0 0 0 0 0 0 0.08 0"/>
<feBlend mode="normal" in2="BackgroundImageFix" result="effect1_dropShadow_217_4035"/>
<feBlend mode="normal" in="SourceGraphic" in2="effect1_dropShadow_217_4035" result="shape"/>
</filter>
</defs>
</svg>
