<svg xmlns="http://www.w3.org/2000/svg" width="100" height="100" fill="none"><circle cx="50" cy="50" r="50" fill="url(#a)"/><path fill="#fff" d="M52.357 24.312a3.333 3.333 0 0 0-4.714 0L24.31 47.645a3.333 3.333 0 0 0 4.713 4.713l.977-.976v21.953a3.334 3.334 0 0 0 3.333 3.333H40a3.333 3.333 0 0 0 3.333-3.333v-6.667a3.333 3.333 0 0 1 3.334-3.333h6.666a3.333 3.333 0 0 1 3.334 3.333v6.667A3.334 3.334 0 0 0 60 76.668h6.667A3.333 3.333 0 0 0 70 73.335V51.382l.977.976a3.333 3.333 0 0 0 4.713-4.713L52.357 24.312Z"/><defs><linearGradient id="a" x1="50" x2="50" y1="0" y2="100" gradientUnits="userSpaceOnUse"><stop stop-color="#356BCF"/><stop offset="1" stop-color="#22B7A0"/></linearGradient></defs></svg>